<svg xmlns="http://www.w3.org/2000/svg" viewBox="0 0 24 24" width="24" height="24" fill="#4285F4">
    <title>Google Classroom</title>
    <path d="M12 3c1.73 0 3.14 1.41 3.14 3.14S13.73 9.29 12 9.29 8.86 7.87 8.86 6.14 10.27 3 12 3m0 15.43c2.27 0 4.86-1.14 4.86-2.57V14.3c0-1.64-3.27-2.57-4.86-2.57S7.14 12.66 7.14 14.3v1.56c0 1.43 2.59 2.57 4.86 2.57M5.57 8.86C6.82 8.86 7.86 9.9 7.86 11.14s-1.04 2.29-2.29 2.29c-1.24 0-2.28-1.04-2.28-2.29 0-1.24 1.04-2.28 2.28-2.28m1.72 7.71v-1.43c0-.87.39-1.66 1-2.28-.17-.02-.35-.03-.53-.03-1.07 0-3.18.53-3.18 1.59v2.15h2.71m11.14-7.71c1.24 0 2.29 1.04 2.29 2.28 0 1.25-1.05 2.29-2.29 2.29s-2.28-1.04-2.28-2.29c0-1.24 1.04-2.28 2.28-2.28m2.29 7.71v-2.15c0-1.06-2.11-1.59-3.18-1.59-.18 0-.36.01-.53.03.61.62 1 1.41 1 2.28v1.43h2.71z"/>
</svg>
